<?xml version="1.0" standalone="no"?>
<!DOCTYPE svg PUBLIC "-//W3C//DTD SVG 20010904//EN"
 "http://www.w3.org/TR/2001/REC-SVG-20010904/DTD/svg10.dtd">
<svg version="1.0" xmlns="http://www.w3.org/2000/svg"
 width="512.000000pt" height="512.000000pt" viewBox="0 0 512.000000 512.000000"
 preserveAspectRatio="xMidYMid meet">
<metadata>
Created by potrace 1.14, written by Peter Selinger 2001-2017
</metadata>
<g transform="translate(0.000000,512.000000) scale(0.100000,-0.100000)"
fill="#000000" stroke="none">
<path d="M355 4346 c-126 -41 -225 -128 -289 -257 -68 -136 -67 -117 -64
-1074 l3 -860 27 -75 c58 -158 171 -279 304 -325 72 -25 74 -26 376 -27 219 0
280 -3 289 -14 12 -14 7 -63 -16 -173 -7 -36 -16 -86 -20 -111 -3 -25 -10 -61
-15 -80 -5 -19 -11 -51 -14 -70 -3 -19 -12 -71 -21 -115 -31 -164 -13 -239 71
-298 46 -32 96 -40 150 -25 44 12 111 77 286 280 23 27 136 154 158 178 8 9
46 52 85 96 212 240 240 268 302 300 l58 29 781 1 c853 2 839 1 942 60 81 47
164 138 201 219 7 17 17 37 22 47 31 61 41 150 43 366 1 122 -1 222 -4 222 -3
0 -81 -77 -175 -171 -93 -94 -185 -178 -203 -186 -71 -30 -416 -105 -464 -100
-89 8 -168 87 -170 170 -1 31 10 116 17 127 2 3 19 74 39 157 19 84 43 167 52
185 9 18 218 234 464 480 l446 447 -2 73 c-4 102 -21 170 -64 263 -64 135
-173 229 -307 266 -62 17 -154 18 -1642 18 l-1576 0 -70 -23z m692 -524 c121
-63 169 -202 111 -320 -10 -19 -8 -26 14 -50 45 -47 62 -92 62 -162 0 -79 -25
-132 -84 -182 -58 -50 -96 -58 -284 -58 l-167 0 -24 26 -25 27 0 338 c0 233 4
346 11 363 18 38 50 44 204 42 122 -2 145 -5 182 -24z m383 13 c18 -9 33 -27
37 -45 5 -17 8 -153 7 -304 l0 -274 133 -1 c74 0 143 -6 154 -12 45 -24 47
-105 4 -133 -20 -13 -58 -16 -209 -16 -101 0 -192 3 -201 6 -41 16 -45 47 -45
396 0 359 1 367 54 388 30 12 33 12 66 -5z m822 -15 c180 -67 282 -261 242
-458 -53 -259 -351 -391 -579 -258 -195 115 -253 382 -123 573 99 146 292 207
460 143z m855 2 c139 -53 204 -147 142 -205 -34 -32 -73 -29 -123 10 -98 77
-212 76 -304 -2 -65 -54 -93 -155 -69 -247 14 -54 95 -138 150 -155 61 -18
132 -9 185 24 45 28 104 98 98 117 -1 6 -39 10 -84 11 -71 1 -85 4 -107 25
-41 38 -31 100 21 128 24 12 292 11 313 -2 56 -35 40 -194 -30 -299 -137 -207
-431 -236 -603 -60 -82 84 -116 180 -111 307 7 171 125 316 295 361 62 17 165
11 227 -13z m-131 -1025 c33 -39 31 -79 -5 -110 l-29 -24 -1113 0 c-1238 0
-1162 -4 -1175 65 -8 40 19 83 56 92 13 3 522 5 1133 5 l1109 0 24 -28z m-105
-446 c27 -34 25 -82 -7 -112 l-26 -24 -1070 0 -1070 0 -24 28 c-13 15 -24 37
-24 47 0 31 21 67 44 78 13 6 404 9 1089 8 l1069 -1 19 -24z"/>
<path d="M815 3680 c-2 -3 -3 -38 -4 -78 l0 -72 80 0 c72 0 82 3 104 25 32 31
33 77 3 105 -12 11 -24 21 -27 21 -21 4 -153 3 -156 -1z"/>
<path d="M812 3291 l1 -81 104 1 c93 0 106 3 130 23 35 30 35 82 -1 112 -21
19 -38 22 -130 23 l-106 2 2 -80z"/>
<path d="M2040 3670 c-93 -31 -151 -111 -155 -210 -4 -118 70 -217 179 -240
66 -13 105 -7 163 26 81 47 119 125 111 229 -13 150 -154 244 -298 195z"/>
<path d="M4789 4282 c-38 -25 -179 -165 -179 -177 0 -13 308 -321 314 -315 3
3 44 43 90 89 136 134 139 177 18 302 -42 44 -91 89 -108 100 -39 24 -101 24
-135 1z"/>
<path d="M3928 3431 c-307 -307 -558 -563 -558 -567 0 -13 308 -319 315 -314
50 44 1115 1116 1113 1121 -3 8 -120 128 -240 246 l-73 72 -557 -558z"/>
<path d="M3230 2683 c-8 -32 -14 -60 -15 -63 -3 -14 -19 -86 -20 -90 -46 -178
-44 -196 13 -185 38 7 316 73 341 81 10 3 -38 58 -139 159 -85 85 -157 155
-161 155 -3 0 -12 -26 -19 -57z"/>
</g>
</svg>
